<mxfile host="Electron" agent="Mozilla/5.0 (Windows NT 10.0; Win64; x64) AppleWebKit/537.36 (KHTML, like Gecko) draw.io/27.0.9 Chrome/134.0.6998.205 Electron/35.4.0 Safari/537.36" version="27.0.9">
  <diagram name="Page-1" id="ckHdrbjYKrRoPWDKsY7T">
    <mxGraphModel dx="1174" dy="849" grid="0" gridSize="10" guides="1" tooltips="1" connect="1" arrows="1" fold="1" page="1" pageScale="1" pageWidth="850" pageHeight="1100" background="none" math="0" shadow="0">
      <root>
        <mxCell id="0" />
        <mxCell id="1" parent="0" />
        <mxCell id="u6RmKrZkn0n1-rbqsSxz-1" value="Flask Сервер" style="ellipse;whiteSpace=wrap;html=1;fontSize=16;" parent="1" vertex="1">
          <mxGeometry x="500" y="215.38" width="159" height="101.5" as="geometry" />
        </mxCell>
        <mxCell id="u6RmKrZkn0n1-rbqsSxz-9" style="edgeStyle=orthogonalEdgeStyle;rounded=0;orthogonalLoop=1;jettySize=auto;html=1;entryX=1;entryY=0.5;entryDx=0;entryDy=0;entryPerimeter=0;fontSize=16;" parent="1" source="u6RmKrZkn0n1-rbqsSxz-6" target="u6RmKrZkn0n1-rbqsSxz-2" edge="1">
          <mxGeometry relative="1" as="geometry">
            <mxPoint x="132" y="301" as="sourcePoint" />
          </mxGeometry>
        </mxCell>
        <mxCell id="u6RmKrZkn0n1-rbqsSxz-2" value="" style="strokeWidth=2;html=1;shape=mxgraph.flowchart.direct_data;whiteSpace=wrap;rotation=0;fontSize=16;" parent="1" vertex="1">
          <mxGeometry x="727" y="237.25" width="236" height="58.75" as="geometry" />
        </mxCell>
        <mxCell id="u6RmKrZkn0n1-rbqsSxz-3" value="20с" style="rounded=0;whiteSpace=wrap;html=1;fontSize=16;" parent="1" vertex="1">
          <mxGeometry x="801" y="237.25" width="55" height="57.75" as="geometry" />
        </mxCell>
        <mxCell id="u6RmKrZkn0n1-rbqsSxz-4" style="edgeStyle=orthogonalEdgeStyle;rounded=0;orthogonalLoop=1;jettySize=auto;html=1;entryX=0;entryY=0.5;entryDx=0;entryDy=0;entryPerimeter=0;fontSize=16;" parent="1" source="u6RmKrZkn0n1-rbqsSxz-1" target="u6RmKrZkn0n1-rbqsSxz-2" edge="1">
          <mxGeometry relative="1" as="geometry" />
        </mxCell>
        <mxCell id="u6RmKrZkn0n1-rbqsSxz-5" value="RabbitMQ" style="text;html=1;align=center;verticalAlign=middle;resizable=0;points=[];autosize=1;strokeColor=none;fillColor=none;strokeWidth=3;fontSize=16;labelBackgroundColor=default;" parent="1" vertex="1">
          <mxGeometry x="744" y="205.18" width="90" height="31" as="geometry" />
        </mxCell>
        <mxCell id="u6RmKrZkn0n1-rbqsSxz-13" style="edgeStyle=orthogonalEdgeStyle;rounded=0;orthogonalLoop=1;jettySize=auto;html=1;entryX=0;entryY=0.5;entryDx=0;entryDy=0;fontSize=16;" parent="1" source="u6RmKrZkn0n1-rbqsSxz-6" target="u6RmKrZkn0n1-rbqsSxz-12" edge="1">
          <mxGeometry relative="1" as="geometry" />
        </mxCell>
        <mxCell id="u6RmKrZkn0n1-rbqsSxz-6" value="Celery Обработчик" style="shape=parallelogram;perimeter=parallelogramPerimeter;whiteSpace=wrap;html=1;fixedSize=1;fontSize=16;" parent="1" vertex="1">
          <mxGeometry x="1116" y="234.19" width="179" height="63.88" as="geometry" />
        </mxCell>
        <mxCell id="u6RmKrZkn0n1-rbqsSxz-10" value="подписаться" style="text;html=1;align=center;verticalAlign=middle;resizable=0;points=[];autosize=1;strokeColor=none;fillColor=none;fontSize=16;" parent="1" vertex="1">
          <mxGeometry x="963" y="234" width="111" height="31" as="geometry" />
        </mxCell>
        <mxCell id="u6RmKrZkn0n1-rbqsSxz-12" value="Эмулятор" style="ellipse;whiteSpace=wrap;html=1;fontSize=16;" parent="1" vertex="1">
          <mxGeometry x="1421" y="222.12" width="136" height="89" as="geometry" />
        </mxCell>
        <mxCell id="u6RmKrZkn0n1-rbqsSxz-14" value="20с" style="rounded=0;whiteSpace=wrap;html=1;fontSize=16;" parent="1" vertex="1">
          <mxGeometry x="746" y="237.25" width="55" height="57.75" as="geometry" />
        </mxCell>
        <mxCell id="u6RmKrZkn0n1-rbqsSxz-26" style="edgeStyle=orthogonalEdgeStyle;rounded=0;orthogonalLoop=1;jettySize=auto;html=1;entryX=0;entryY=0.5;entryDx=0;entryDy=0;" parent="1" source="u6RmKrZkn0n1-rbqsSxz-15" target="u6RmKrZkn0n1-rbqsSxz-24" edge="1">
          <mxGeometry relative="1" as="geometry" />
        </mxCell>
        <mxCell id="u6RmKrZkn0n1-rbqsSxz-15" value="Celery Обработчик" style="shape=parallelogram;perimeter=parallelogramPerimeter;whiteSpace=wrap;html=1;fixedSize=1;fontSize=16;" parent="1" vertex="1">
          <mxGeometry x="1116" y="434.19" width="179" height="63.88" as="geometry" />
        </mxCell>
        <mxCell id="u6RmKrZkn0n1-rbqsSxz-25" style="edgeStyle=orthogonalEdgeStyle;rounded=0;orthogonalLoop=1;jettySize=auto;html=1;entryX=0;entryY=0.5;entryDx=0;entryDy=0;" parent="1" source="u6RmKrZkn0n1-rbqsSxz-16" target="u6RmKrZkn0n1-rbqsSxz-23" edge="1">
          <mxGeometry relative="1" as="geometry" />
        </mxCell>
        <mxCell id="u6RmKrZkn0n1-rbqsSxz-16" value="Celery Обработчик" style="shape=parallelogram;perimeter=parallelogramPerimeter;whiteSpace=wrap;html=1;fixedSize=1;fontSize=16;" parent="1" vertex="1">
          <mxGeometry x="1116" y="34.19" width="179" height="63.88" as="geometry" />
        </mxCell>
        <mxCell id="u6RmKrZkn0n1-rbqsSxz-17" style="rounded=0;orthogonalLoop=1;jettySize=auto;html=1;entryX=0.5;entryY=1;entryDx=0;entryDy=0;entryPerimeter=0;exitX=0;exitY=0.5;exitDx=0;exitDy=0;edgeStyle=orthogonalEdgeStyle;curved=1;" parent="1" source="u6RmKrZkn0n1-rbqsSxz-15" target="u6RmKrZkn0n1-rbqsSxz-2" edge="1">
          <mxGeometry relative="1" as="geometry">
            <mxPoint x="1074.0007915577" y="675.5294117647059" as="sourcePoint" />
            <mxPoint x="603.01" y="527" as="targetPoint" />
          </mxGeometry>
        </mxCell>
        <mxCell id="u6RmKrZkn0n1-rbqsSxz-22" value="&lt;span style=&quot;&quot;&gt;подписаться&lt;/span&gt;" style="edgeLabel;html=1;align=center;verticalAlign=middle;resizable=0;points=[];fontSize=16;labelBackgroundColor=default;" parent="u6RmKrZkn0n1-rbqsSxz-17" vertex="1" connectable="0">
          <mxGeometry x="-0.0862" y="26" relative="1" as="geometry">
            <mxPoint x="99" y="-35" as="offset" />
          </mxGeometry>
        </mxCell>
        <mxCell id="u6RmKrZkn0n1-rbqsSxz-18" style="rounded=0;orthogonalLoop=1;jettySize=auto;html=1;entryX=0.5;entryY=0;entryDx=0;entryDy=0;entryPerimeter=0;exitX=0;exitY=0.5;exitDx=0;exitDy=0;edgeStyle=orthogonalEdgeStyle;curved=1;" parent="1" source="u6RmKrZkn0n1-rbqsSxz-16" target="u6RmKrZkn0n1-rbqsSxz-2" edge="1">
          <mxGeometry relative="1" as="geometry" />
        </mxCell>
        <mxCell id="u6RmKrZkn0n1-rbqsSxz-21" value="&lt;span style=&quot;&quot;&gt;подписаться&lt;/span&gt;" style="edgeLabel;html=1;align=center;verticalAlign=middle;resizable=0;points=[];fontSize=16;labelBackgroundColor=default;" parent="u6RmKrZkn0n1-rbqsSxz-18" vertex="1" connectable="0">
          <mxGeometry x="-0.2258" y="-20" relative="1" as="geometry">
            <mxPoint x="68" y="28" as="offset" />
          </mxGeometry>
        </mxCell>
        <mxCell id="u6RmKrZkn0n1-rbqsSxz-23" value="Эмулятор" style="ellipse;whiteSpace=wrap;html=1;fontSize=16;" parent="1" vertex="1">
          <mxGeometry x="1421" y="21.63" width="136" height="89" as="geometry" />
        </mxCell>
        <mxCell id="u6RmKrZkn0n1-rbqsSxz-24" value="Эмулятор" style="ellipse;whiteSpace=wrap;html=1;fontSize=16;" parent="1" vertex="1">
          <mxGeometry x="1421" y="421.63" width="136" height="89" as="geometry" />
        </mxCell>
      </root>
    </mxGraphModel>
  </diagram>
</mxfile>
